<?xml version="1.0" standalone="no"?><svg xmlns="http://www.w3.org/2000/svg" viewBox="0 0 1440 320"><path fill="#0099ff" fill-opacity="1" d="M0,160L26.7,160C53.3,160,107,160,160,181.3C213.3,203,267,245,320,272C373.3,299,427,309,480,266.7C533.3,224,587,128,640,106.7C693.3,85,747,139,800,138.7C853.3,139,907,85,960,85.3C1013.3,85,1067,139,1120,170.7C1173.3,203,1227,213,1280,218.7C1333.3,224,1387,224,1413,224L1440,224L1440,320L1413.3,320C1386.7,320,1333,320,1280,320C1226.7,320,1173,320,1120,320C1066.7,320,1013,320,960,320C906.7,320,853,320,800,320C746.7,320,693,320,640,320C586.7,320,533,320,480,320C426.7,320,373,320,320,320C266.7,320,213,320,160,320C106.7,320,53,320,27,320L0,320Z"></path></svg>